<svg xmlns="http://www.w3.org/2000/svg" xmlns:xlink="http://www.w3.org/1999/xlink" width="300" zoomAndPan="magnify" viewBox="0 0 224.87999 74.999997" height="100" preserveAspectRatio="xMidYMid meet" version="1.0"><defs><filter x="0%" y="0%" width="100%" height="100%" id="0152b28420"><feColorMatrix values="0 0 0 0 1 0 0 0 0 1 0 0 0 0 1 0 0 0 1 0" color-interpolation-filters="sRGB"/></filter><g/><mask id="7cae0150df"><g filter="url(#0152b28420)"><rect x="-22.487999" width="269.855988" fill="#000000" y="-7.5" height="89.999996" fill-opacity="0.6"/></g></mask><clipPath id="b24725aa0a"><path d="M 0.707031 0.492188 L 59.125 0.492188 L 59.125 14.0625 L 0.707031 14.0625 Z M 0.707031 0.492188 " clip-rule="nonzero"/></clipPath><clipPath id="bb5fa43f2d"><path d="M 5.230469 0.492188 L 59.09375 0.492188 L 54.570312 14.0625 L 0.707031 14.0625 Z M 5.230469 0.492188 " clip-rule="nonzero"/></clipPath><clipPath id="a3e9b39192"><rect x="0" width="60" y="0" height="15"/></clipPath><mask id="692b8f9c5d"><g filter="url(#0152b28420)"><rect x="-22.487999" width="269.855988" fill="#000000" y="-7.5" height="89.999996" fill-opacity="0.6"/></g></mask><clipPath id="fe2485adbd"><path d="M 0.457031 0.789062 L 58.769531 0.789062 L 58.769531 14.359375 L 0.457031 14.359375 Z M 0.457031 0.789062 " clip-rule="nonzero"/></clipPath><clipPath id="f31b2fe86a"><path d="M 4.980469 0.789062 L 58.746094 0.789062 L 54.21875 14.359375 L 0.457031 14.359375 Z M 4.980469 0.789062 " clip-rule="nonzero"/></clipPath><clipPath id="d5916dbcbd"><rect x="0" width="59" y="0" height="15"/></clipPath><mask id="03a797a7ce"><g filter="url(#0152b28420)"><rect x="-22.487999" width="269.855988" fill="#000000" y="-7.5" height="89.999996" fill-opacity="0.6"/></g></mask><clipPath id="669fbebc50"><path d="M 1.136719 1.085938 L 59.554688 1.085938 L 59.554688 14.65625 L 1.136719 14.65625 Z M 1.136719 1.085938 " clip-rule="nonzero"/></clipPath><clipPath id="4324042d67"><path d="M 5.660156 1.085938 L 59.53125 1.085938 L 55.007812 14.65625 L 1.136719 14.65625 Z M 5.660156 1.085938 " clip-rule="nonzero"/></clipPath><clipPath id="fa534aa1a3"><rect x="0" width="60" y="0" height="15"/></clipPath><mask id="868827083d"><g filter="url(#0152b28420)"><rect x="-22.487999" width="269.855988" fill="#000000" y="-7.5" height="89.999996" fill-opacity="0.8"/></g></mask><clipPath id="54b98988d1"><path d="M 0.738281 0.492188 L 34.011719 0.492188 L 34.011719 44.683594 L 0.738281 44.683594 Z M 0.738281 0.492188 " clip-rule="nonzero"/></clipPath><clipPath id="c8923695ca"><path d="M 15.460938 0.492188 L 34.011719 0.492188 L 19.292969 44.65625 L 0.738281 44.65625 Z M 15.460938 0.492188 " clip-rule="nonzero"/></clipPath><clipPath id="803b34d9db"><rect x="0" width="35" y="0" height="45"/></clipPath><mask id="7c6b144ecd"><g filter="url(#0152b28420)"><rect x="-22.487999" width="269.855988" fill="#000000" y="-7.5" height="89.999996" fill-opacity="0.9"/></g></mask><clipPath id="2d3a087de8"><path d="M 1.007812 0.492188 L 34.28125 0.492188 L 34.28125 44.683594 L 1.007812 44.683594 Z M 1.007812 0.492188 " clip-rule="nonzero"/></clipPath><clipPath id="8e29cb54a9"><path d="M 15.730469 0.492188 L 34.28125 0.492188 L 19.558594 44.65625 L 1.007812 44.65625 Z M 15.730469 0.492188 " clip-rule="nonzero"/></clipPath><clipPath id="ded6538d92"><rect x="0" width="35" y="0" height="45"/></clipPath><clipPath id="8ddfa18c05"><path d="M 134.773438 17.492188 L 168.046875 17.492188 L 168.046875 61.683594 L 134.773438 61.683594 Z M 134.773438 17.492188 " clip-rule="nonzero"/></clipPath><clipPath id="f8bbcd32ac"><path d="M 149.492188 17.492188 L 168.046875 17.492188 L 153.324219 61.65625 L 134.773438 61.65625 Z M 149.492188 17.492188 " clip-rule="nonzero"/></clipPath><clipPath id="0ded63f09c"><path d="M 155.582031 17.507812 L 188.761719 17.507812 L 188.761719 27.039062 L 155.582031 27.039062 Z M 155.582031 17.507812 " clip-rule="nonzero"/></clipPath><clipPath id="1b2f3895f8"><path d="M 158.761719 17.507812 L 188.742188 17.507812 L 185.566406 27.039062 L 155.582031 27.039062 Z M 158.761719 17.507812 " clip-rule="nonzero"/></clipPath><clipPath id="261671e080"><path d="M 161.992188 9.515625 L 181.53125 9.515625 L 181.53125 35.46875 L 161.992188 35.46875 Z M 161.992188 9.515625 " clip-rule="nonzero"/></clipPath><clipPath id="b179d0ed5d"><path d="M 170.636719 9.515625 L 181.53125 9.515625 L 172.886719 35.453125 L 161.992188 35.453125 Z M 170.636719 9.515625 " clip-rule="nonzero"/></clipPath></defs><g mask="url(#7cae0150df)"><g transform="matrix(1, 0, 0, 1, 46, 17)"><g clip-path="url(#a3e9b39192)"><g clip-path="url(#b24725aa0a)"><g clip-path="url(#bb5fa43f2d)"><path fill="#373535" d="M 0.707031 0.492188 L 59.070312 0.492188 L 59.070312 14.0625 L 0.707031 14.0625 Z M 0.707031 0.492188 " fill-opacity="1" fill-rule="nonzero"/></g></g></g></g></g><g mask="url(#692b8f9c5d)"><g transform="matrix(1, 0, 0, 1, 41, 32)"><g clip-path="url(#d5916dbcbd)"><g clip-path="url(#fe2485adbd)"><g clip-path="url(#f31b2fe86a)"><path fill="#373535" d="M 0.457031 0.789062 L 58.71875 0.789062 L 58.71875 14.359375 L 0.457031 14.359375 Z M 0.457031 0.789062 " fill-opacity="1" fill-rule="nonzero"/></g></g></g></g></g><g mask="url(#03a797a7ce)"><g transform="matrix(1, 0, 0, 1, 35, 47)"><g clip-path="url(#fa534aa1a3)"><g clip-path="url(#669fbebc50)"><g clip-path="url(#4324042d67)"><path fill="#373535" d="M 1.136719 1.085938 L 59.554688 1.085938 L 59.554688 14.65625 L 1.136719 14.65625 Z M 1.136719 1.085938 " fill-opacity="1" fill-rule="nonzero"/></g></g></g></g></g><g mask="url(#868827083d)"><g transform="matrix(1, 0, 0, 1, 92, 17)"><g clip-path="url(#803b34d9db)"><g clip-path="url(#54b98988d1)"><g clip-path="url(#c8923695ca)"><path fill="#373535" d="M 0.738281 0.492188 L 34.011719 0.492188 L 34.011719 44.683594 L 0.738281 44.683594 Z M 0.738281 0.492188 " fill-opacity="1" fill-rule="nonzero"/></g></g></g></g></g><g mask="url(#7c6b144ecd)"><g transform="matrix(1, 0, 0, 1, 113, 17)"><g clip-path="url(#ded6538d92)"><g clip-path="url(#2d3a087de8)"><g clip-path="url(#8e29cb54a9)"><path fill="#373535" d="M 1.007812 0.492188 L 34.28125 0.492188 L 34.28125 44.683594 L 1.007812 44.683594 Z M 1.007812 0.492188 " fill-opacity="1" fill-rule="nonzero"/></g></g></g></g></g><g clip-path="url(#8ddfa18c05)"><g clip-path="url(#f8bbcd32ac)"><path fill="#373535" d="M 134.773438 17.492188 L 168.046875 17.492188 L 168.046875 61.683594 L 134.773438 61.683594 Z M 134.773438 17.492188 " fill-opacity="1" fill-rule="nonzero"/></g></g><g clip-path="url(#0ded63f09c)"><g clip-path="url(#1b2f3895f8)"><path fill="#00c2e4" d="M 155.582031 17.507812 L 188.726562 17.507812 L 188.726562 27.039062 L 155.582031 27.039062 Z M 155.582031 17.507812 " fill-opacity="1" fill-rule="nonzero"/></g></g><g clip-path="url(#261671e080)"><g clip-path="url(#b179d0ed5d)"><path fill="#00c2e4" d="M 161.992188 9.515625 L 181.53125 9.515625 L 181.53125 35.46875 L 161.992188 35.46875 Z M 161.992188 9.515625 " fill-opacity="1" fill-rule="nonzero"/></g></g><g fill="#373535" fill-opacity="1"><g transform="translate(36.136196, 66.889763)"><g><path d="M 0.015625 0 L 1.109375 -2.625 L 1.453125 -2.625 L 2.53125 0 L 2.21875 0 L 1.890625 -0.828125 L 0.65625 -0.828125 L 0.3125 0 Z M 0.75 -1.078125 L 1.78125 -1.078125 L 1.265625 -2.359375 Z M 0.75 -1.078125 "/></g></g></g><g fill="#373535" fill-opacity="1"><g transform="translate(41.684129, 66.889763)"><g/></g></g><g fill="#373535" fill-opacity="1"><g transform="translate(45.49176, 66.889763)"><g><path d="M 2.796875 -1.25 C 2.796875 -1.070312 2.765625 -0.898438 2.703125 -0.734375 C 2.640625 -0.578125 2.546875 -0.441406 2.421875 -0.328125 C 2.304688 -0.210938 2.171875 -0.117188 2.015625 -0.046875 C 1.867188 0.015625 1.703125 0.046875 1.515625 0.046875 C 1.328125 0.046875 1.148438 0.0078125 0.984375 -0.0625 C 0.828125 -0.132812 0.6875 -0.226562 0.5625 -0.34375 C 0.4375 -0.46875 0.335938 -0.613281 0.265625 -0.78125 C 0.203125 -0.945312 0.171875 -1.125 0.171875 -1.3125 C 0.171875 -1.5 0.203125 -1.675781 0.265625 -1.84375 C 0.335938 -2.007812 0.429688 -2.148438 0.546875 -2.265625 C 0.671875 -2.390625 0.816406 -2.488281 0.984375 -2.5625 C 1.148438 -2.632812 1.328125 -2.671875 1.515625 -2.671875 C 1.722656 -2.671875 1.914062 -2.628906 2.09375 -2.546875 C 2.269531 -2.472656 2.421875 -2.367188 2.546875 -2.234375 L 2.359375 -2.03125 C 2.253906 -2.144531 2.128906 -2.234375 1.984375 -2.296875 C 1.835938 -2.367188 1.679688 -2.40625 1.515625 -2.40625 C 1.367188 -2.40625 1.226562 -2.375 1.09375 -2.3125 C 0.96875 -2.257812 0.859375 -2.179688 0.765625 -2.078125 C 0.671875 -1.984375 0.59375 -1.867188 0.53125 -1.734375 C 0.476562 -1.609375 0.453125 -1.46875 0.453125 -1.3125 C 0.453125 -1.15625 0.476562 -1.007812 0.53125 -0.875 C 0.59375 -0.75 0.671875 -0.632812 0.765625 -0.53125 C 0.859375 -0.4375 0.96875 -0.359375 1.09375 -0.296875 C 1.226562 -0.242188 1.367188 -0.21875 1.515625 -0.21875 C 1.648438 -0.21875 1.773438 -0.238281 1.890625 -0.28125 C 2.003906 -0.332031 2.101562 -0.394531 2.1875 -0.46875 C 2.28125 -0.550781 2.351562 -0.644531 2.40625 -0.75 C 2.457031 -0.863281 2.488281 -0.988281 2.5 -1.125 L 1.5625 -1.125 L 1.5625 -1.375 L 2.796875 -1.375 Z M 2.796875 -1.25 "/></g></g></g><g fill="#373535" fill-opacity="1"><g transform="translate(51.448515, 66.889763)"><g><path d="M 0.15625 -0.9375 C 0.15625 -1.070312 0.175781 -1.195312 0.21875 -1.3125 C 0.269531 -1.4375 0.335938 -1.539062 0.421875 -1.625 C 0.515625 -1.71875 0.617188 -1.789062 0.734375 -1.84375 C 0.847656 -1.894531 0.972656 -1.921875 1.109375 -1.921875 C 1.242188 -1.921875 1.367188 -1.894531 1.484375 -1.84375 C 1.597656 -1.789062 1.695312 -1.71875 1.78125 -1.625 C 1.875 -1.539062 1.941406 -1.4375 1.984375 -1.3125 C 2.035156 -1.195312 2.0625 -1.070312 2.0625 -0.9375 C 2.0625 -0.800781 2.035156 -0.671875 1.984375 -0.546875 C 1.941406 -0.429688 1.875 -0.328125 1.78125 -0.234375 C 1.695312 -0.148438 1.597656 -0.0820312 1.484375 -0.03125 C 1.367188 0.0078125 1.242188 0.03125 1.109375 0.03125 C 0.972656 0.03125 0.847656 0.0078125 0.734375 -0.03125 C 0.617188 -0.0820312 0.515625 -0.148438 0.421875 -0.234375 C 0.335938 -0.328125 0.269531 -0.429688 0.21875 -0.546875 C 0.175781 -0.671875 0.15625 -0.800781 0.15625 -0.9375 Z M 1.109375 -0.203125 C 1.203125 -0.203125 1.289062 -0.222656 1.375 -0.265625 C 1.457031 -0.304688 1.53125 -0.359375 1.59375 -0.421875 C 1.65625 -0.484375 1.703125 -0.554688 1.734375 -0.640625 C 1.773438 -0.734375 1.796875 -0.832031 1.796875 -0.9375 C 1.796875 -1.039062 1.773438 -1.132812 1.734375 -1.21875 C 1.703125 -1.3125 1.65625 -1.390625 1.59375 -1.453125 C 1.53125 -1.523438 1.457031 -1.578125 1.375 -1.609375 C 1.289062 -1.648438 1.203125 -1.671875 1.109375 -1.671875 C 1.015625 -1.671875 0.925781 -1.648438 0.84375 -1.609375 C 0.757812 -1.578125 0.6875 -1.523438 0.625 -1.453125 C 0.5625 -1.390625 0.507812 -1.3125 0.46875 -1.21875 C 0.4375 -1.132812 0.421875 -1.039062 0.421875 -0.9375 C 0.421875 -0.832031 0.4375 -0.734375 0.46875 -0.640625 C 0.507812 -0.554688 0.5625 -0.484375 0.625 -0.421875 C 0.6875 -0.359375 0.757812 -0.304688 0.84375 -0.265625 C 0.925781 -0.222656 1.015625 -0.203125 1.109375 -0.203125 Z M 1.109375 -0.203125 "/></g></g></g><g fill="#373535" fill-opacity="1"><g transform="translate(56.666391, 66.889763)"><g><path d="M 0.15625 -0.9375 C 0.15625 -1.070312 0.175781 -1.195312 0.21875 -1.3125 C 0.269531 -1.4375 0.335938 -1.539062 0.421875 -1.625 C 0.515625 -1.71875 0.617188 -1.789062 0.734375 -1.84375 C 0.847656 -1.894531 0.972656 -1.921875 1.109375 -1.921875 C 1.242188 -1.921875 1.367188 -1.894531 1.484375 -1.84375 C 1.597656 -1.789062 1.695312 -1.71875 1.78125 -1.625 C 1.875 -1.539062 1.941406 -1.4375 1.984375 -1.3125 C 2.035156 -1.195312 2.0625 -1.070312 2.0625 -0.9375 C 2.0625 -0.800781 2.035156 -0.671875 1.984375 -0.546875 C 1.941406 -0.429688 1.875 -0.328125 1.78125 -0.234375 C 1.695312 -0.148438 1.597656 -0.0820312 1.484375 -0.03125 C 1.367188 0.0078125 1.242188 0.03125 1.109375 0.03125 C 0.972656 0.03125 0.847656 0.0078125 0.734375 -0.03125 C 0.617188 -0.0820312 0.515625 -0.148438 0.421875 -0.234375 C 0.335938 -0.328125 0.269531 -0.429688 0.21875 -0.546875 C 0.175781 -0.671875 0.15625 -0.800781 0.15625 -0.9375 Z M 1.109375 -0.203125 C 1.203125 -0.203125 1.289062 -0.222656 1.375 -0.265625 C 1.457031 -0.304688 1.53125 -0.359375 1.59375 -0.421875 C 1.65625 -0.484375 1.703125 -0.554688 1.734375 -0.640625 C 1.773438 -0.734375 1.796875 -0.832031 1.796875 -0.9375 C 1.796875 -1.039062 1.773438 -1.132812 1.734375 -1.21875 C 1.703125 -1.3125 1.65625 -1.390625 1.59375 -1.453125 C 1.53125 -1.523438 1.457031 -1.578125 1.375 -1.609375 C 1.289062 -1.648438 1.203125 -1.671875 1.109375 -1.671875 C 1.015625 -1.671875 0.925781 -1.648438 0.84375 -1.609375 C 0.757812 -1.578125 0.6875 -1.523438 0.625 -1.453125 C 0.5625 -1.390625 0.507812 -1.3125 0.46875 -1.21875 C 0.4375 -1.132812 0.421875 -1.039062 0.421875 -0.9375 C 0.421875 -0.832031 0.4375 -0.734375 0.46875 -0.640625 C 0.507812 -0.554688 0.5625 -0.484375 0.625 -0.421875 C 0.6875 -0.359375 0.757812 -0.304688 0.84375 -0.265625 C 0.925781 -0.222656 1.015625 -0.203125 1.109375 -0.203125 Z M 1.109375 -0.203125 "/></g></g></g><g fill="#373535" fill-opacity="1"><g transform="translate(61.884267, 66.889763)"><g><path d="M 1.703125 0 L 1.703125 -0.203125 C 1.617188 -0.128906 1.523438 -0.0703125 1.421875 -0.03125 C 1.316406 0.0078125 1.207031 0.03125 1.09375 0.03125 C 0.957031 0.03125 0.832031 0.00390625 0.71875 -0.046875 C 0.601562 -0.0976562 0.503906 -0.164062 0.421875 -0.25 C 0.335938 -0.332031 0.269531 -0.429688 0.21875 -0.546875 C 0.175781 -0.671875 0.15625 -0.800781 0.15625 -0.9375 C 0.15625 -1.070312 0.175781 -1.195312 0.21875 -1.3125 C 0.269531 -1.4375 0.335938 -1.539062 0.421875 -1.625 C 0.503906 -1.71875 0.601562 -1.785156 0.71875 -1.828125 C 0.84375 -1.878906 0.96875 -1.90625 1.09375 -1.90625 C 1.207031 -1.90625 1.316406 -1.882812 1.421875 -1.84375 C 1.523438 -1.8125 1.617188 -1.757812 1.703125 -1.6875 L 1.703125 -2.625 L 1.96875 -2.6875 L 1.96875 0 Z M 0.421875 -0.9375 C 0.421875 -0.84375 0.4375 -0.75 0.46875 -0.65625 C 0.507812 -0.5625 0.5625 -0.484375 0.625 -0.421875 C 0.6875 -0.359375 0.757812 -0.304688 0.84375 -0.265625 C 0.925781 -0.234375 1.019531 -0.21875 1.125 -0.21875 C 1.238281 -0.21875 1.34375 -0.238281 1.4375 -0.28125 C 1.539062 -0.332031 1.628906 -0.394531 1.703125 -0.46875 L 1.703125 -1.40625 C 1.628906 -1.488281 1.539062 -1.550781 1.4375 -1.59375 C 1.34375 -1.644531 1.238281 -1.671875 1.125 -1.671875 C 0.925781 -1.671875 0.757812 -1.597656 0.625 -1.453125 C 0.488281 -1.316406 0.421875 -1.144531 0.421875 -0.9375 Z M 0.421875 -0.9375 "/></g></g></g><g fill="#373535" fill-opacity="1"><g transform="translate(67.098393, 66.889763)"><g/></g></g><g fill="#373535" fill-opacity="1"><g transform="translate(70.906025, 66.889763)"><g><path d="M 2.796875 -1.25 C 2.796875 -1.070312 2.765625 -0.898438 2.703125 -0.734375 C 2.640625 -0.578125 2.546875 -0.441406 2.421875 -0.328125 C 2.304688 -0.210938 2.171875 -0.117188 2.015625 -0.046875 C 1.867188 0.015625 1.703125 0.046875 1.515625 0.046875 C 1.328125 0.046875 1.148438 0.0078125 0.984375 -0.0625 C 0.828125 -0.132812 0.6875 -0.226562 0.5625 -0.34375 C 0.4375 -0.46875 0.335938 -0.613281 0.265625 -0.78125 C 0.203125 -0.945312 0.171875 -1.125 0.171875 -1.3125 C 0.171875 -1.5 0.203125 -1.675781 0.265625 -1.84375 C 0.335938 -2.007812 0.429688 -2.148438 0.546875 -2.265625 C 0.671875 -2.390625 0.816406 -2.488281 0.984375 -2.5625 C 1.148438 -2.632812 1.328125 -2.671875 1.515625 -2.671875 C 1.722656 -2.671875 1.914062 -2.628906 2.09375 -2.546875 C 2.269531 -2.472656 2.421875 -2.367188 2.546875 -2.234375 L 2.359375 -2.03125 C 2.253906 -2.144531 2.128906 -2.234375 1.984375 -2.296875 C 1.835938 -2.367188 1.679688 -2.40625 1.515625 -2.40625 C 1.367188 -2.40625 1.226562 -2.375 1.09375 -2.3125 C 0.96875 -2.257812 0.859375 -2.179688 0.765625 -2.078125 C 0.671875 -1.984375 0.59375 -1.867188 0.53125 -1.734375 C 0.476562 -1.609375 0.453125 -1.46875 0.453125 -1.3125 C 0.453125 -1.15625 0.476562 -1.007812 0.53125 -0.875 C 0.59375 -0.75 0.671875 -0.632812 0.765625 -0.53125 C 0.859375 -0.4375 0.96875 -0.359375 1.09375 -0.296875 C 1.226562 -0.242188 1.367188 -0.21875 1.515625 -0.21875 C 1.648438 -0.21875 1.773438 -0.238281 1.890625 -0.28125 C 2.003906 -0.332031 2.101562 -0.394531 2.1875 -0.46875 C 2.28125 -0.550781 2.351562 -0.644531 2.40625 -0.75 C 2.457031 -0.863281 2.488281 -0.988281 2.5 -1.125 L 1.5625 -1.125 L 1.5625 -1.375 L 2.796875 -1.375 Z M 2.796875 -1.25 "/></g></g></g><g fill="#373535" fill-opacity="1"><g transform="translate(76.86278, 66.889763)"><g><path d="M 0.5 -1.875 L 0.5 -0.75 C 0.5 -0.582031 0.546875 -0.445312 0.640625 -0.34375 C 0.734375 -0.25 0.863281 -0.203125 1.03125 -0.203125 C 1.144531 -0.203125 1.242188 -0.226562 1.328125 -0.28125 C 1.421875 -0.332031 1.492188 -0.40625 1.546875 -0.5 L 1.546875 -1.875 L 1.828125 -1.875 L 1.828125 0 L 1.546875 0 L 1.546875 -0.21875 C 1.472656 -0.132812 1.382812 -0.0703125 1.28125 -0.03125 C 1.1875 0.0078125 1.078125 0.03125 0.953125 0.03125 C 0.742188 0.03125 0.570312 -0.0351562 0.4375 -0.171875 C 0.300781 -0.304688 0.234375 -0.476562 0.234375 -0.6875 L 0.234375 -1.875 Z M 0.5 -1.875 "/></g></g></g><g fill="#373535" fill-opacity="1"><g transform="translate(81.923126, 66.889763)"><g><path d="M 0.828125 0.03125 C 0.617188 0.03125 0.453125 -0.0195312 0.328125 -0.125 C 0.203125 -0.226562 0.140625 -0.363281 0.140625 -0.53125 C 0.140625 -0.707031 0.207031 -0.847656 0.34375 -0.953125 C 0.476562 -1.054688 0.660156 -1.109375 0.890625 -1.109375 C 0.984375 -1.109375 1.078125 -1.09375 1.171875 -1.0625 C 1.265625 -1.039062 1.351562 -1.015625 1.4375 -0.984375 L 1.4375 -1.21875 C 1.4375 -1.375 1.394531 -1.488281 1.3125 -1.5625 C 1.226562 -1.644531 1.101562 -1.6875 0.9375 -1.6875 C 0.84375 -1.6875 0.75 -1.671875 0.65625 -1.640625 C 0.5625 -1.609375 0.457031 -1.566406 0.34375 -1.515625 L 0.25 -1.734375 C 0.382812 -1.796875 0.507812 -1.84375 0.625 -1.875 C 0.738281 -1.90625 0.851562 -1.921875 0.96875 -1.921875 C 1.195312 -1.921875 1.375 -1.863281 1.5 -1.75 C 1.632812 -1.632812 1.703125 -1.472656 1.703125 -1.265625 L 1.703125 0 L 1.4375 0 L 1.4375 -0.1875 C 1.351562 -0.113281 1.257812 -0.0546875 1.15625 -0.015625 C 1.050781 0.015625 0.941406 0.03125 0.828125 0.03125 Z M 0.40625 -0.546875 C 0.40625 -0.429688 0.445312 -0.34375 0.53125 -0.28125 C 0.625 -0.21875 0.738281 -0.1875 0.875 -0.1875 C 0.988281 -0.1875 1.09375 -0.203125 1.1875 -0.234375 C 1.28125 -0.265625 1.363281 -0.320312 1.4375 -0.40625 L 1.4375 -0.75 C 1.351562 -0.800781 1.265625 -0.835938 1.171875 -0.859375 C 1.085938 -0.890625 0.992188 -0.90625 0.890625 -0.90625 C 0.742188 -0.90625 0.625 -0.867188 0.53125 -0.796875 C 0.445312 -0.734375 0.40625 -0.648438 0.40625 -0.546875 Z M 0.40625 -0.546875 "/></g></g></g><g fill="#373535" fill-opacity="1"><g transform="translate(86.859702, 66.889763)"><g><path d="M 0.234375 0 L 0.234375 -1.875 L 0.515625 -1.875 L 0.515625 -1.609375 C 0.566406 -1.710938 0.632812 -1.789062 0.71875 -1.84375 C 0.8125 -1.894531 0.914062 -1.921875 1.03125 -1.921875 C 1.070312 -1.921875 1.101562 -1.914062 1.125 -1.90625 C 1.15625 -1.90625 1.1875 -1.898438 1.21875 -1.890625 L 1.21875 -1.640625 C 1.1875 -1.648438 1.148438 -1.65625 1.109375 -1.65625 C 1.078125 -1.664062 1.046875 -1.671875 1.015625 -1.671875 C 0.898438 -1.671875 0.796875 -1.632812 0.703125 -1.5625 C 0.617188 -1.5 0.554688 -1.40625 0.515625 -1.28125 L 0.515625 0 Z M 0.234375 0 "/></g></g></g><g fill="#373535" fill-opacity="1"><g transform="translate(91.158666, 66.889763)"><g><path d="M 1.703125 0 L 1.703125 -0.203125 C 1.617188 -0.128906 1.523438 -0.0703125 1.421875 -0.03125 C 1.316406 0.0078125 1.207031 0.03125 1.09375 0.03125 C 0.957031 0.03125 0.832031 0.00390625 0.71875 -0.046875 C 0.601562 -0.0976562 0.503906 -0.164062 0.421875 -0.25 C 0.335938 -0.332031 0.269531 -0.429688 0.21875 -0.546875 C 0.175781 -0.671875 0.15625 -0.800781 0.15625 -0.9375 C 0.15625 -1.070312 0.175781 -1.195312 0.21875 -1.3125 C 0.269531 -1.4375 0.335938 -1.539062 0.421875 -1.625 C 0.503906 -1.71875 0.601562 -1.785156 0.71875 -1.828125 C 0.84375 -1.878906 0.96875 -1.90625 1.09375 -1.90625 C 1.207031 -1.90625 1.316406 -1.882812 1.421875 -1.84375 C 1.523438 -1.8125 1.617188 -1.757812 1.703125 -1.6875 L 1.703125 -2.625 L 1.96875 -2.6875 L 1.96875 0 Z M 0.421875 -0.9375 C 0.421875 -0.84375 0.4375 -0.75 0.46875 -0.65625 C 0.507812 -0.5625 0.5625 -0.484375 0.625 -0.421875 C 0.6875 -0.359375 0.757812 -0.304688 0.84375 -0.265625 C 0.925781 -0.234375 1.019531 -0.21875 1.125 -0.21875 C 1.238281 -0.21875 1.34375 -0.238281 1.4375 -0.28125 C 1.539062 -0.332031 1.628906 -0.394531 1.703125 -0.46875 L 1.703125 -1.40625 C 1.628906 -1.488281 1.539062 -1.550781 1.4375 -1.59375 C 1.34375 -1.644531 1.238281 -1.671875 1.125 -1.671875 C 0.925781 -1.671875 0.757812 -1.597656 0.625 -1.453125 C 0.488281 -1.316406 0.421875 -1.144531 0.421875 -0.9375 Z M 0.421875 -0.9375 "/></g></g></g><g fill="#373535" fill-opacity="1"><g transform="translate(96.372792, 66.889763)"><g><path d="M 0.375 -2.234375 C 0.320312 -2.234375 0.273438 -2.25 0.234375 -2.28125 C 0.203125 -2.320312 0.1875 -2.367188 0.1875 -2.421875 C 0.1875 -2.472656 0.203125 -2.515625 0.234375 -2.546875 C 0.273438 -2.585938 0.320312 -2.609375 0.375 -2.609375 C 0.425781 -2.609375 0.46875 -2.585938 0.5 -2.546875 C 0.539062 -2.515625 0.5625 -2.472656 0.5625 -2.421875 C 0.5625 -2.367188 0.539062 -2.320312 0.5 -2.28125 C 0.46875 -2.25 0.425781 -2.234375 0.375 -2.234375 Z M 0.515625 -1.875 L 0.515625 0 L 0.234375 0 L 0.234375 -1.875 Z M 0.515625 -1.875 "/></g></g></g><g fill="#373535" fill-opacity="1"><g transform="translate(100.124165, 66.889763)"><g><path d="M 0.828125 0.03125 C 0.617188 0.03125 0.453125 -0.0195312 0.328125 -0.125 C 0.203125 -0.226562 0.140625 -0.363281 0.140625 -0.53125 C 0.140625 -0.707031 0.207031 -0.847656 0.34375 -0.953125 C 0.476562 -1.054688 0.660156 -1.109375 0.890625 -1.109375 C 0.984375 -1.109375 1.078125 -1.09375 1.171875 -1.0625 C 1.265625 -1.039062 1.351562 -1.015625 1.4375 -0.984375 L 1.4375 -1.21875 C 1.4375 -1.375 1.394531 -1.488281 1.3125 -1.5625 C 1.226562 -1.644531 1.101562 -1.6875 0.9375 -1.6875 C 0.84375 -1.6875 0.75 -1.671875 0.65625 -1.640625 C 0.5625 -1.609375 0.457031 -1.566406 0.34375 -1.515625 L 0.25 -1.734375 C 0.382812 -1.796875 0.507812 -1.84375 0.625 -1.875 C 0.738281 -1.90625 0.851562 -1.921875 0.96875 -1.921875 C 1.195312 -1.921875 1.375 -1.863281 1.5 -1.75 C 1.632812 -1.632812 1.703125 -1.472656 1.703125 -1.265625 L 1.703125 0 L 1.4375 0 L 1.4375 -0.1875 C 1.351562 -0.113281 1.257812 -0.0546875 1.15625 -0.015625 C 1.050781 0.015625 0.941406 0.03125 0.828125 0.03125 Z M 0.40625 -0.546875 C 0.40625 -0.429688 0.445312 -0.34375 0.53125 -0.28125 C 0.625 -0.21875 0.738281 -0.1875 0.875 -0.1875 C 0.988281 -0.1875 1.09375 -0.203125 1.1875 -0.234375 C 1.28125 -0.265625 1.363281 -0.320312 1.4375 -0.40625 L 1.4375 -0.75 C 1.351562 -0.800781 1.265625 -0.835938 1.171875 -0.859375 C 1.085938 -0.890625 0.992188 -0.90625 0.890625 -0.90625 C 0.742188 -0.90625 0.625 -0.867188 0.53125 -0.796875 C 0.445312 -0.734375 0.40625 -0.648438 0.40625 -0.546875 Z M 0.40625 -0.546875 "/></g></g></g><g fill="#373535" fill-opacity="1"><g transform="translate(105.060741, 66.889763)"><g><path d="M 0.234375 0 L 0.234375 -1.875 L 0.515625 -1.875 L 0.515625 -1.65625 C 0.585938 -1.738281 0.671875 -1.800781 0.765625 -1.84375 C 0.867188 -1.894531 0.984375 -1.921875 1.109375 -1.921875 C 1.316406 -1.921875 1.488281 -1.851562 1.625 -1.71875 C 1.757812 -1.582031 1.828125 -1.40625 1.828125 -1.1875 L 1.828125 0 L 1.5625 0 L 1.5625 -1.125 C 1.5625 -1.289062 1.507812 -1.421875 1.40625 -1.515625 C 1.3125 -1.617188 1.1875 -1.671875 1.03125 -1.671875 C 0.914062 -1.671875 0.8125 -1.644531 0.71875 -1.59375 C 0.632812 -1.539062 0.566406 -1.472656 0.515625 -1.390625 L 0.515625 0 Z M 0.234375 0 "/></g></g></g><g fill="#373535" fill-opacity="1"><g transform="translate(110.121455, 66.889763)"><g/></g></g><g fill="#373535" fill-opacity="1"><g transform="translate(113.929086, 66.889763)"><g/></g></g><g fill="#373535" fill-opacity="1"><g transform="translate(117.736771, 66.889763)"><g><path d="M 1.53125 -0.21875 C 1.695312 -0.21875 1.851562 -0.25 2 -0.3125 C 2.144531 -0.382812 2.269531 -0.472656 2.375 -0.578125 L 2.5625 -0.390625 C 2.425781 -0.253906 2.269531 -0.144531 2.09375 -0.0625 C 1.914062 0.0078125 1.726562 0.046875 1.53125 0.046875 C 1.332031 0.046875 1.148438 0.0078125 0.984375 -0.0625 C 0.828125 -0.132812 0.6875 -0.226562 0.5625 -0.34375 C 0.4375 -0.46875 0.335938 -0.613281 0.265625 -0.78125 C 0.203125 -0.945312 0.171875 -1.125 0.171875 -1.3125 C 0.171875 -1.5 0.203125 -1.675781 0.265625 -1.84375 C 0.335938 -2.007812 0.4375 -2.148438 0.5625 -2.265625 C 0.6875 -2.390625 0.828125 -2.488281 0.984375 -2.5625 C 1.148438 -2.632812 1.332031 -2.671875 1.53125 -2.671875 C 1.726562 -2.671875 1.914062 -2.628906 2.09375 -2.546875 C 2.28125 -2.472656 2.4375 -2.367188 2.5625 -2.234375 L 2.375 -2.03125 C 2.269531 -2.144531 2.140625 -2.234375 1.984375 -2.296875 C 1.835938 -2.367188 1.6875 -2.40625 1.53125 -2.40625 C 1.375 -2.40625 1.226562 -2.375 1.09375 -2.3125 C 0.96875 -2.257812 0.859375 -2.179688 0.765625 -2.078125 C 0.671875 -1.984375 0.59375 -1.867188 0.53125 -1.734375 C 0.476562 -1.609375 0.453125 -1.46875 0.453125 -1.3125 C 0.453125 -1.15625 0.476562 -1.007812 0.53125 -0.875 C 0.59375 -0.75 0.671875 -0.632812 0.765625 -0.53125 C 0.859375 -0.4375 0.972656 -0.359375 1.109375 -0.296875 C 1.242188 -0.242188 1.382812 -0.21875 1.53125 -0.21875 Z M 1.53125 -0.21875 "/></g></g></g><g fill="#373535" fill-opacity="1"><g transform="translate(123.445981, 66.889763)"><g><path d="M 0.15625 -0.9375 C 0.15625 -1.070312 0.175781 -1.195312 0.21875 -1.3125 C 0.269531 -1.4375 0.335938 -1.539062 0.421875 -1.625 C 0.515625 -1.71875 0.617188 -1.789062 0.734375 -1.84375 C 0.847656 -1.894531 0.972656 -1.921875 1.109375 -1.921875 C 1.242188 -1.921875 1.367188 -1.894531 1.484375 -1.84375 C 1.597656 -1.789062 1.695312 -1.71875 1.78125 -1.625 C 1.875 -1.539062 1.941406 -1.4375 1.984375 -1.3125 C 2.035156 -1.195312 2.0625 -1.070312 2.0625 -0.9375 C 2.0625 -0.800781 2.035156 -0.671875 1.984375 -0.546875 C 1.941406 -0.429688 1.875 -0.328125 1.78125 -0.234375 C 1.695312 -0.148438 1.597656 -0.0820312 1.484375 -0.03125 C 1.367188 0.0078125 1.242188 0.03125 1.109375 0.03125 C 0.972656 0.03125 0.847656 0.0078125 0.734375 -0.03125 C 0.617188 -0.0820312 0.515625 -0.148438 0.421875 -0.234375 C 0.335938 -0.328125 0.269531 -0.429688 0.21875 -0.546875 C 0.175781 -0.671875 0.15625 -0.800781 0.15625 -0.9375 Z M 1.109375 -0.203125 C 1.203125 -0.203125 1.289062 -0.222656 1.375 -0.265625 C 1.457031 -0.304688 1.53125 -0.359375 1.59375 -0.421875 C 1.65625 -0.484375 1.703125 -0.554688 1.734375 -0.640625 C 1.773438 -0.734375 1.796875 -0.832031 1.796875 -0.9375 C 1.796875 -1.039062 1.773438 -1.132812 1.734375 -1.21875 C 1.703125 -1.3125 1.65625 -1.390625 1.59375 -1.453125 C 1.53125 -1.523438 1.457031 -1.578125 1.375 -1.609375 C 1.289062 -1.648438 1.203125 -1.671875 1.109375 -1.671875 C 1.015625 -1.671875 0.925781 -1.648438 0.84375 -1.609375 C 0.757812 -1.578125 0.6875 -1.523438 0.625 -1.453125 C 0.5625 -1.390625 0.507812 -1.3125 0.46875 -1.21875 C 0.4375 -1.132812 0.421875 -1.039062 0.421875 -0.9375 C 0.421875 -0.832031 0.4375 -0.734375 0.46875 -0.640625 C 0.507812 -0.554688 0.5625 -0.484375 0.625 -0.421875 C 0.6875 -0.359375 0.757812 -0.304688 0.84375 -0.265625 C 0.925781 -0.222656 1.015625 -0.203125 1.109375 -0.203125 Z M 1.109375 -0.203125 "/></g></g></g><g fill="#373535" fill-opacity="1"><g transform="translate(128.663856, 66.889763)"><g><path d="M 0.234375 0 L 0.234375 -1.875 L 0.515625 -1.875 L 0.515625 -1.671875 C 0.585938 -1.753906 0.664062 -1.816406 0.75 -1.859375 C 0.84375 -1.898438 0.945312 -1.921875 1.0625 -1.921875 C 1.195312 -1.921875 1.316406 -1.890625 1.421875 -1.828125 C 1.523438 -1.765625 1.601562 -1.679688 1.65625 -1.578125 C 1.738281 -1.691406 1.832031 -1.773438 1.9375 -1.828125 C 2.039062 -1.890625 2.160156 -1.921875 2.296875 -1.921875 C 2.503906 -1.921875 2.671875 -1.851562 2.796875 -1.71875 C 2.929688 -1.582031 3 -1.40625 3 -1.1875 L 3 0 L 2.71875 0 L 2.71875 -1.125 C 2.71875 -1.289062 2.671875 -1.421875 2.578125 -1.515625 C 2.492188 -1.617188 2.378906 -1.671875 2.234375 -1.671875 C 2.128906 -1.671875 2.035156 -1.644531 1.953125 -1.59375 C 1.867188 -1.539062 1.796875 -1.460938 1.734375 -1.359375 C 1.734375 -1.335938 1.734375 -1.3125 1.734375 -1.28125 C 1.742188 -1.25 1.75 -1.21875 1.75 -1.1875 L 1.75 0 L 1.484375 0 L 1.484375 -1.125 C 1.484375 -1.289062 1.4375 -1.421875 1.34375 -1.515625 C 1.257812 -1.617188 1.144531 -1.671875 1 -1.671875 C 0.894531 -1.671875 0.800781 -1.644531 0.71875 -1.59375 C 0.632812 -1.550781 0.566406 -1.488281 0.515625 -1.40625 L 0.515625 0 Z M 0.234375 0 "/></g></g></g><g fill="#373535" fill-opacity="1"><g transform="translate(134.886908, 66.889763)"><g><path d="M 0.234375 0.765625 L 0.234375 -1.875 L 0.515625 -1.875 L 0.515625 -1.671875 C 0.585938 -1.753906 0.675781 -1.8125 0.78125 -1.84375 C 0.882812 -1.882812 1 -1.90625 1.125 -1.90625 C 1.25 -1.90625 1.367188 -1.878906 1.484375 -1.828125 C 1.597656 -1.785156 1.695312 -1.71875 1.78125 -1.625 C 1.875 -1.539062 1.941406 -1.4375 1.984375 -1.3125 C 2.035156 -1.195312 2.0625 -1.070312 2.0625 -0.9375 C 2.0625 -0.800781 2.035156 -0.671875 1.984375 -0.546875 C 1.941406 -0.429688 1.875 -0.332031 1.78125 -0.25 C 1.695312 -0.164062 1.597656 -0.0976562 1.484375 -0.046875 C 1.367188 0.00390625 1.242188 0.03125 1.109375 0.03125 C 1.003906 0.03125 0.898438 0.015625 0.796875 -0.015625 C 0.691406 -0.0546875 0.597656 -0.113281 0.515625 -0.1875 L 0.515625 0.765625 Z M 1.09375 -1.671875 C 0.976562 -1.671875 0.867188 -1.644531 0.765625 -1.59375 C 0.660156 -1.550781 0.578125 -1.488281 0.515625 -1.40625 L 0.515625 -0.46875 C 0.578125 -0.394531 0.660156 -0.332031 0.765625 -0.28125 C 0.867188 -0.238281 0.976562 -0.21875 1.09375 -0.21875 C 1.289062 -0.21875 1.453125 -0.285156 1.578125 -0.421875 C 1.710938 -0.554688 1.78125 -0.726562 1.78125 -0.9375 C 1.78125 -1.039062 1.765625 -1.132812 1.734375 -1.21875 C 1.703125 -1.3125 1.65625 -1.390625 1.59375 -1.453125 C 1.53125 -1.515625 1.453125 -1.566406 1.359375 -1.609375 C 1.273438 -1.648438 1.1875 -1.671875 1.09375 -1.671875 Z M 1.09375 -1.671875 "/></g></g></g><g fill="#373535" fill-opacity="1"><g transform="translate(140.101034, 66.889763)"><g><path d="M 0.828125 0.03125 C 0.617188 0.03125 0.453125 -0.0195312 0.328125 -0.125 C 0.203125 -0.226562 0.140625 -0.363281 0.140625 -0.53125 C 0.140625 -0.707031 0.207031 -0.847656 0.34375 -0.953125 C 0.476562 -1.054688 0.660156 -1.109375 0.890625 -1.109375 C 0.984375 -1.109375 1.078125 -1.09375 1.171875 -1.0625 C 1.265625 -1.039062 1.351562 -1.015625 1.4375 -0.984375 L 1.4375 -1.21875 C 1.4375 -1.375 1.394531 -1.488281 1.3125 -1.5625 C 1.226562 -1.644531 1.101562 -1.6875 0.9375 -1.6875 C 0.84375 -1.6875 0.75 -1.671875 0.65625 -1.640625 C 0.5625 -1.609375 0.457031 -1.566406 0.34375 -1.515625 L 0.25 -1.734375 C 0.382812 -1.796875 0.507812 -1.84375 0.625 -1.875 C 0.738281 -1.90625 0.851562 -1.921875 0.96875 -1.921875 C 1.195312 -1.921875 1.375 -1.863281 1.5 -1.75 C 1.632812 -1.632812 1.703125 -1.472656 1.703125 -1.265625 L 1.703125 0 L 1.4375 0 L 1.4375 -0.1875 C 1.351562 -0.113281 1.257812 -0.0546875 1.15625 -0.015625 C 1.050781 0.015625 0.941406 0.03125 0.828125 0.03125 Z M 0.40625 -0.546875 C 0.40625 -0.429688 0.445312 -0.34375 0.53125 -0.28125 C 0.625 -0.21875 0.738281 -0.1875 0.875 -0.1875 C 0.988281 -0.1875 1.09375 -0.203125 1.1875 -0.234375 C 1.28125 -0.265625 1.363281 -0.320312 1.4375 -0.40625 L 1.4375 -0.75 C 1.351562 -0.800781 1.265625 -0.835938 1.171875 -0.859375 C 1.085938 -0.890625 0.992188 -0.90625 0.890625 -0.90625 C 0.742188 -0.90625 0.625 -0.867188 0.53125 -0.796875 C 0.445312 -0.734375 0.40625 -0.648438 0.40625 -0.546875 Z M 0.40625 -0.546875 "/></g></g></g><g fill="#373535" fill-opacity="1"><g transform="translate(145.03761, 66.889763)"><g><path d="M 0.234375 0 L 0.234375 -1.875 L 0.515625 -1.875 L 0.515625 -1.65625 C 0.585938 -1.738281 0.671875 -1.800781 0.765625 -1.84375 C 0.867188 -1.894531 0.984375 -1.921875 1.109375 -1.921875 C 1.316406 -1.921875 1.488281 -1.851562 1.625 -1.71875 C 1.757812 -1.582031 1.828125 -1.40625 1.828125 -1.1875 L 1.828125 0 L 1.5625 0 L 1.5625 -1.125 C 1.5625 -1.289062 1.507812 -1.421875 1.40625 -1.515625 C 1.3125 -1.617188 1.1875 -1.671875 1.03125 -1.671875 C 0.914062 -1.671875 0.8125 -1.644531 0.71875 -1.59375 C 0.632812 -1.539062 0.566406 -1.472656 0.515625 -1.390625 L 0.515625 0 Z M 0.234375 0 "/></g></g></g><g fill="#373535" fill-opacity="1"><g transform="translate(150.097957, 66.889763)"><g><path d="M 0.671875 0.25 L 0.78125 0 L 0.015625 -1.875 L 0.328125 -1.875 L 0.9375 -0.34375 L 1.59375 -1.875 L 1.890625 -1.875 L 0.953125 0.28125 C 0.878906 0.457031 0.789062 0.585938 0.6875 0.671875 C 0.59375 0.753906 0.46875 0.796875 0.3125 0.796875 C 0.28125 0.796875 0.25 0.789062 0.21875 0.78125 C 0.1875 0.78125 0.160156 0.773438 0.140625 0.765625 L 0.140625 0.515625 C 0.171875 0.523438 0.195312 0.53125 0.21875 0.53125 C 0.238281 0.53125 0.265625 0.53125 0.296875 0.53125 C 0.378906 0.53125 0.453125 0.503906 0.515625 0.453125 C 0.578125 0.410156 0.628906 0.34375 0.671875 0.25 Z M 0.671875 0.25 "/></g></g></g><g fill="#373535" fill-opacity="1"><g transform="translate(52.649707, 14.911176)"><g><path d="M 0.171875 0 L 1.375 -5.640625 L 5.34375 -5.640625 L 5.21875 -5.09375 L 1.875 -5.09375 L 1.4375 -3.125 L 3.640625 -3.125 L 3.515625 -2.578125 L 1.328125 -2.578125 L 0.890625 -0.546875 L 4.28125 -0.546875 L 4.171875 0 Z M 0.171875 0 "/></g></g></g><g fill="#373535" fill-opacity="1"><g transform="translate(61.765245, 14.911176)"><g><path d="M 0.078125 0 L 0.9375 -4.046875 L 1.515625 -4.046875 L 1.421875 -3.625 C 1.597656 -3.789062 1.785156 -3.910156 1.984375 -3.984375 C 2.179688 -4.066406 2.390625 -4.109375 2.609375 -4.109375 C 2.890625 -4.109375 3.128906 -4.035156 3.328125 -3.890625 C 3.523438 -3.753906 3.664062 -3.570312 3.75 -3.34375 C 3.976562 -3.601562 4.210938 -3.796875 4.453125 -3.921875 C 4.691406 -4.046875 4.945312 -4.109375 5.21875 -4.109375 C 5.65625 -4.109375 5.988281 -3.953125 6.21875 -3.640625 C 6.445312 -3.335938 6.507812 -2.953125 6.40625 -2.484375 L 5.875 0 L 5.296875 0 L 5.828125 -2.453125 C 5.890625 -2.785156 5.847656 -3.054688 5.703125 -3.265625 C 5.554688 -3.484375 5.328125 -3.59375 5.015625 -3.59375 C 4.804688 -3.59375 4.601562 -3.535156 4.40625 -3.421875 C 4.207031 -3.304688 4.019531 -3.132812 3.84375 -2.90625 C 3.84375 -2.84375 3.835938 -2.773438 3.828125 -2.703125 C 3.828125 -2.628906 3.816406 -2.554688 3.796875 -2.484375 L 3.265625 0 L 2.6875 0 L 3.1875 -2.390625 C 3.269531 -2.742188 3.238281 -3.03125 3.09375 -3.25 C 2.945312 -3.476562 2.71875 -3.59375 2.40625 -3.59375 C 2.207031 -3.59375 2.015625 -3.539062 1.828125 -3.4375 C 1.640625 -3.34375 1.460938 -3.203125 1.296875 -3.015625 L 0.65625 0 Z M 0.078125 0 "/></g></g></g><g fill="#373535" fill-opacity="1"><g transform="translate(72.798785, 14.911176)"><g><path d="M -0.28125 1.65625 L 0.9375 -4.046875 L 1.515625 -4.046875 L 1.453125 -3.75 C 1.617188 -3.863281 1.796875 -3.945312 1.984375 -4 C 2.171875 -4.0625 2.363281 -4.09375 2.5625 -4.09375 C 2.8125 -4.09375 3.046875 -4.046875 3.265625 -3.953125 C 3.492188 -3.859375 3.6875 -3.726562 3.84375 -3.5625 C 4 -3.40625 4.117188 -3.210938 4.203125 -2.984375 C 4.296875 -2.753906 4.34375 -2.503906 4.34375 -2.234375 C 4.34375 -1.921875 4.285156 -1.625 4.171875 -1.34375 C 4.054688 -1.0625 3.894531 -0.816406 3.6875 -0.609375 C 3.488281 -0.398438 3.253906 -0.234375 2.984375 -0.109375 C 2.722656 0.015625 2.4375 0.078125 2.125 0.078125 C 1.851562 0.078125 1.597656 0.0234375 1.359375 -0.078125 C 1.128906 -0.179688 0.929688 -0.328125 0.765625 -0.515625 L 0.3125 1.65625 Z M 2.4375 -3.578125 C 2.226562 -3.578125 2.03125 -3.535156 1.84375 -3.453125 C 1.65625 -3.378906 1.484375 -3.273438 1.328125 -3.140625 L 0.890625 -1.109375 C 1.003906 -0.910156 1.171875 -0.75 1.390625 -0.625 C 1.609375 -0.507812 1.847656 -0.453125 2.109375 -0.453125 C 2.335938 -0.453125 2.550781 -0.5 2.75 -0.59375 C 2.957031 -0.6875 3.132812 -0.8125 3.28125 -0.96875 C 3.4375 -1.125 3.554688 -1.304688 3.640625 -1.515625 C 3.722656 -1.734375 3.765625 -1.957031 3.765625 -2.1875 C 3.765625 -2.59375 3.640625 -2.925781 3.390625 -3.1875 C 3.148438 -3.445312 2.832031 -3.578125 2.4375 -3.578125 Z M 2.4375 -3.578125 "/></g></g></g><g fill="#373535" fill-opacity="1"><g transform="translate(81.704795, 14.911176)"><g><path d="M 0.3125 -1.84375 C 0.3125 -2.15625 0.367188 -2.445312 0.484375 -2.71875 C 0.597656 -3 0.753906 -3.238281 0.953125 -3.4375 C 1.148438 -3.644531 1.378906 -3.8125 1.640625 -3.9375 C 1.910156 -4.0625 2.191406 -4.125 2.484375 -4.125 C 2.753906 -4.125 3.003906 -4.070312 3.234375 -3.96875 C 3.460938 -3.875 3.660156 -3.738281 3.828125 -3.5625 C 3.992188 -3.394531 4.125 -3.191406 4.21875 -2.953125 C 4.3125 -2.722656 4.359375 -2.46875 4.359375 -2.1875 C 4.359375 -1.882812 4.300781 -1.59375 4.1875 -1.3125 C 4.070312 -1.039062 3.914062 -0.800781 3.71875 -0.59375 C 3.519531 -0.382812 3.285156 -0.21875 3.015625 -0.09375 C 2.753906 0.0195312 2.476562 0.078125 2.1875 0.078125 C 1.925781 0.078125 1.675781 0.03125 1.4375 -0.0625 C 1.207031 -0.15625 1.007812 -0.285156 0.84375 -0.453125 C 0.675781 -0.628906 0.546875 -0.835938 0.453125 -1.078125 C 0.359375 -1.316406 0.3125 -1.570312 0.3125 -1.84375 Z M 2.21875 -0.453125 C 2.4375 -0.453125 2.640625 -0.492188 2.828125 -0.578125 C 3.015625 -0.671875 3.179688 -0.796875 3.328125 -0.953125 C 3.472656 -1.109375 3.585938 -1.289062 3.671875 -1.5 C 3.753906 -1.707031 3.796875 -1.925781 3.796875 -2.15625 C 3.796875 -2.5625 3.664062 -2.898438 3.40625 -3.171875 C 3.15625 -3.453125 2.835938 -3.59375 2.453125 -3.59375 C 2.242188 -3.59375 2.039062 -3.546875 1.84375 -3.453125 C 1.65625 -3.359375 1.488281 -3.234375 1.34375 -3.078125 C 1.207031 -2.921875 1.097656 -2.738281 1.015625 -2.53125 C 0.929688 -2.320312 0.890625 -2.101562 0.890625 -1.875 C 0.890625 -1.476562 1.015625 -1.140625 1.265625 -0.859375 C 1.515625 -0.585938 1.832031 -0.453125 2.21875 -0.453125 Z M 2.21875 -0.453125 "/></g></g></g><g fill="#373535" fill-opacity="1"><g transform="translate(90.634979, 14.911176)"><g><path d="M 1.359375 0 L 0.8125 0 L 0.546875 -4.046875 L 1.09375 -4.046875 L 1.265625 -0.8125 L 2.9375 -4.046875 L 3.453125 -4.046875 L 3.75 -0.8125 L 5.296875 -4.046875 L 5.875 -4.046875 L 3.90625 0 L 3.328125 0 L 3.046875 -3.234375 Z M 1.359375 0 "/></g></g></g><g fill="#373535" fill-opacity="1"><g transform="translate(100.435518, 14.911176)"><g><path d="M 3.671875 -0.359375 C 3.453125 -0.210938 3.226562 -0.101562 3 -0.03125 C 2.769531 0.0390625 2.519531 0.078125 2.25 0.078125 C 1.96875 0.078125 1.707031 0.03125 1.46875 -0.0625 C 1.226562 -0.15625 1.019531 -0.285156 0.84375 -0.453125 C 0.675781 -0.617188 0.546875 -0.816406 0.453125 -1.046875 C 0.359375 -1.285156 0.3125 -1.546875 0.3125 -1.828125 C 0.3125 -2.140625 0.363281 -2.429688 0.46875 -2.703125 C 0.582031 -2.984375 0.734375 -3.222656 0.921875 -3.421875 C 1.117188 -3.628906 1.34375 -3.796875 1.59375 -3.921875 C 1.851562 -4.046875 2.128906 -4.109375 2.421875 -4.109375 C 2.671875 -4.109375 2.898438 -4.054688 3.109375 -3.953125 C 3.316406 -3.859375 3.5 -3.726562 3.65625 -3.5625 C 3.8125 -3.394531 3.929688 -3.191406 4.015625 -2.953125 C 4.097656 -2.722656 4.140625 -2.472656 4.140625 -2.203125 C 4.140625 -2.148438 4.140625 -2.097656 4.140625 -2.046875 C 4.140625 -1.992188 4.132812 -1.925781 4.125 -1.84375 L 0.890625 -1.84375 C 0.890625 -1.4375 1.019531 -1.097656 1.28125 -0.828125 C 1.550781 -0.566406 1.882812 -0.4375 2.28125 -0.4375 C 2.476562 -0.4375 2.671875 -0.46875 2.859375 -0.53125 C 3.046875 -0.59375 3.21875 -0.675781 3.375 -0.78125 Z M 2.375 -3.578125 C 2.03125 -3.578125 1.726562 -3.457031 1.46875 -3.21875 C 1.207031 -2.976562 1.03125 -2.675781 0.9375 -2.3125 L 3.59375 -2.3125 C 3.570312 -2.675781 3.445312 -2.976562 3.21875 -3.21875 C 2.988281 -3.457031 2.707031 -3.578125 2.375 -3.578125 Z M 2.375 -3.578125 "/></g></g></g><g fill="#373535" fill-opacity="1"><g transform="translate(109.131998, 14.911176)"><g><path d="M 0.0625 0 L 0.921875 -4.046875 L 1.5 -4.046875 L 1.390625 -3.53125 C 1.546875 -3.71875 1.722656 -3.863281 1.921875 -3.96875 C 2.117188 -4.070312 2.332031 -4.125 2.5625 -4.125 C 2.632812 -4.125 2.707031 -4.117188 2.78125 -4.109375 C 2.863281 -4.097656 2.929688 -4.082031 2.984375 -4.0625 L 2.875 -3.5 C 2.820312 -3.53125 2.75 -3.550781 2.65625 -3.5625 C 2.570312 -3.582031 2.488281 -3.59375 2.40625 -3.59375 C 2.175781 -3.59375 1.960938 -3.523438 1.765625 -3.390625 C 1.566406 -3.265625 1.390625 -3.078125 1.234375 -2.828125 L 0.640625 0 Z M 0.0625 0 "/></g></g></g><g fill="#373535" fill-opacity="1"><g transform="translate(116.103888, 14.911176)"><g/></g></g><g fill="#373535" fill-opacity="1"><g transform="translate(122.084543, 14.911176)"><g><path d="M 3 -0.40625 L 1.796875 -4.9375 L 0.75 0 L 0.171875 0 L 1.375 -5.640625 L 2.203125 -5.640625 L 3.234375 -1.625 L 5.96875 -5.640625 L 6.859375 -5.640625 L 5.65625 0 L 5.09375 0 L 6.125 -4.921875 Z M 3 -0.40625 "/></g></g></g><g fill="#373535" fill-opacity="1"><g transform="translate(133.021379, 14.911176)"><g><path d="M 0.3125 -1.84375 C 0.3125 -2.15625 0.367188 -2.445312 0.484375 -2.71875 C 0.597656 -3 0.753906 -3.238281 0.953125 -3.4375 C 1.148438 -3.644531 1.378906 -3.8125 1.640625 -3.9375 C 1.910156 -4.0625 2.191406 -4.125 2.484375 -4.125 C 2.753906 -4.125 3.003906 -4.070312 3.234375 -3.96875 C 3.460938 -3.875 3.660156 -3.738281 3.828125 -3.5625 C 3.992188 -3.394531 4.125 -3.191406 4.21875 -2.953125 C 4.3125 -2.722656 4.359375 -2.46875 4.359375 -2.1875 C 4.359375 -1.882812 4.300781 -1.59375 4.1875 -1.3125 C 4.070312 -1.039062 3.914062 -0.800781 3.71875 -0.59375 C 3.519531 -0.382812 3.285156 -0.21875 3.015625 -0.09375 C 2.753906 0.0195312 2.476562 0.078125 2.1875 0.078125 C 1.925781 0.078125 1.675781 0.03125 1.4375 -0.0625 C 1.207031 -0.15625 1.007812 -0.285156 0.84375 -0.453125 C 0.675781 -0.628906 0.546875 -0.835938 0.453125 -1.078125 C 0.359375 -1.316406 0.3125 -1.570312 0.3125 -1.84375 Z M 2.21875 -0.453125 C 2.4375 -0.453125 2.640625 -0.492188 2.828125 -0.578125 C 3.015625 -0.671875 3.179688 -0.796875 3.328125 -0.953125 C 3.472656 -1.109375 3.585938 -1.289062 3.671875 -1.5 C 3.753906 -1.707031 3.796875 -1.925781 3.796875 -2.15625 C 3.796875 -2.5625 3.664062 -2.898438 3.40625 -3.171875 C 3.15625 -3.453125 2.835938 -3.59375 2.453125 -3.59375 C 2.242188 -3.59375 2.039062 -3.546875 1.84375 -3.453125 C 1.65625 -3.359375 1.488281 -3.234375 1.34375 -3.078125 C 1.207031 -2.921875 1.097656 -2.738281 1.015625 -2.53125 C 0.929688 -2.320312 0.890625 -2.101562 0.890625 -1.875 C 0.890625 -1.476562 1.015625 -1.140625 1.265625 -0.859375 C 1.515625 -0.585938 1.832031 -0.453125 2.21875 -0.453125 Z M 2.21875 -0.453125 "/></g></g></g><g fill="#373535" fill-opacity="1"><g transform="translate(141.951562, 14.911176)"><g><path d="M 1.3125 0 L 0.46875 -4.046875 L 1.09375 -4.046875 L 1.734375 -0.78125 L 3.796875 -4.046875 L 4.4375 -4.046875 L 1.859375 0 Z M 1.3125 0 "/></g></g></g><g fill="#373535" fill-opacity="1"><g transform="translate(150.253158, 14.911176)"><g><path d="M 3.671875 -0.359375 C 3.453125 -0.210938 3.226562 -0.101562 3 -0.03125 C 2.769531 0.0390625 2.519531 0.078125 2.25 0.078125 C 1.96875 0.078125 1.707031 0.03125 1.46875 -0.0625 C 1.226562 -0.15625 1.019531 -0.285156 0.84375 -0.453125 C 0.675781 -0.617188 0.546875 -0.816406 0.453125 -1.046875 C 0.359375 -1.285156 0.3125 -1.546875 0.3125 -1.828125 C 0.3125 -2.140625 0.363281 -2.429688 0.46875 -2.703125 C 0.582031 -2.984375 0.734375 -3.222656 0.921875 -3.421875 C 1.117188 -3.628906 1.34375 -3.796875 1.59375 -3.921875 C 1.851562 -4.046875 2.128906 -4.109375 2.421875 -4.109375 C 2.671875 -4.109375 2.898438 -4.054688 3.109375 -3.953125 C 3.316406 -3.859375 3.5 -3.726562 3.65625 -3.5625 C 3.8125 -3.394531 3.929688 -3.191406 4.015625 -2.953125 C 4.097656 -2.722656 4.140625 -2.472656 4.140625 -2.203125 C 4.140625 -2.148438 4.140625 -2.097656 4.140625 -2.046875 C 4.140625 -1.992188 4.132812 -1.925781 4.125 -1.84375 L 0.890625 -1.84375 C 0.890625 -1.4375 1.019531 -1.097656 1.28125 -0.828125 C 1.550781 -0.566406 1.882812 -0.4375 2.28125 -0.4375 C 2.476562 -0.4375 2.671875 -0.46875 2.859375 -0.53125 C 3.046875 -0.59375 3.21875 -0.675781 3.375 -0.78125 Z M 2.375 -3.578125 C 2.03125 -3.578125 1.726562 -3.457031 1.46875 -3.21875 C 1.207031 -2.976562 1.03125 -2.675781 0.9375 -2.3125 L 3.59375 -2.3125 C 3.570312 -2.675781 3.445312 -2.976562 3.21875 -3.21875 C 2.988281 -3.457031 2.707031 -3.578125 2.375 -3.578125 Z M 2.375 -3.578125 "/></g></g></g><g fill="#373535" fill-opacity="1"><g transform="translate(158.949638, 14.911176)"><g><path d="M -0.109375 -0.671875 L 0.28125 -1.03125 C 0.46875 -0.820312 0.671875 -0.664062 0.890625 -0.5625 C 1.117188 -0.457031 1.363281 -0.40625 1.625 -0.40625 C 1.914062 -0.40625 2.160156 -0.472656 2.359375 -0.609375 C 2.554688 -0.753906 2.65625 -0.929688 2.65625 -1.140625 C 2.65625 -1.296875 2.601562 -1.414062 2.5 -1.5 C 2.40625 -1.59375 2.238281 -1.664062 2 -1.71875 L 1.34375 -1.875 C 1.007812 -1.945312 0.757812 -2.066406 0.59375 -2.234375 C 0.425781 -2.398438 0.34375 -2.617188 0.34375 -2.890625 C 0.34375 -3.253906 0.476562 -3.546875 0.75 -3.765625 C 1.019531 -3.992188 1.378906 -4.109375 1.828125 -4.109375 C 2.117188 -4.109375 2.398438 -4.054688 2.671875 -3.953125 C 2.953125 -3.847656 3.207031 -3.6875 3.4375 -3.46875 L 3.09375 -3.078125 C 2.894531 -3.253906 2.679688 -3.390625 2.453125 -3.484375 C 2.222656 -3.578125 2.003906 -3.625 1.796875 -3.625 C 1.515625 -3.625 1.289062 -3.554688 1.125 -3.421875 C 0.957031 -3.296875 0.875 -3.132812 0.875 -2.9375 C 0.875 -2.78125 0.921875 -2.660156 1.015625 -2.578125 C 1.117188 -2.492188 1.289062 -2.425781 1.53125 -2.375 L 2.1875 -2.21875 C 2.539062 -2.132812 2.800781 -2.007812 2.96875 -1.84375 C 3.132812 -1.675781 3.21875 -1.460938 3.21875 -1.203125 C 3.21875 -1.015625 3.175781 -0.84375 3.09375 -0.6875 C 3.007812 -0.53125 2.894531 -0.394531 2.75 -0.28125 C 2.613281 -0.164062 2.445312 -0.078125 2.25 -0.015625 C 2.050781 0.046875 1.835938 0.078125 1.609375 0.078125 C 1.273438 0.078125 0.953125 0.0078125 0.640625 -0.125 C 0.328125 -0.257812 0.078125 -0.441406 -0.109375 -0.671875 Z M -0.109375 -0.671875 "/></g></g></g></svg>