<svg xmlns="http://www.w3.org/2000/svg" xmlns:xlink="http://www.w3.org/1999/xlink" width="200" zoomAndPan="magnify" viewBox="0 0 150 37.5" height="50" preserveAspectRatio="xMidYMid meet" version="1.0"><defs><filter x="0%" y="0%" width="100%" height="100%" id="b2dd53ff35"><feColorMatrix values="0 0 0 0 1 0 0 0 0 1 0 0 0 0 1 0 0 0 1 0" color-interpolation-filters="sRGB"/></filter><g/><mask id="e1e34aae4d"><g filter="url(#b2dd53ff35)"><rect x="-15" width="180" fill="#000000" y="-3.75" height="45" fill-opacity="0.7"/></g></mask><clipPath id="fa8eaa03f5"><path d="M 0.777344 0.808594 L 21.726562 0.808594 L 21.726562 5.675781 L 0.777344 5.675781 Z M 0.777344 0.808594 " clip-rule="nonzero"/></clipPath><clipPath id="104165bdc0"><path d="M 2.398438 0.808594 L 21.714844 0.808594 L 20.09375 5.675781 L 0.777344 5.675781 Z M 2.398438 0.808594 " clip-rule="nonzero"/></clipPath><clipPath id="b9f29e7ade"><rect x="0" width="22" y="0" height="6"/></clipPath><mask id="95956e7f3a"><g filter="url(#b2dd53ff35)"><rect x="-15" width="180" fill="#000000" y="-3.75" height="45" fill-opacity="0.7"/></g></mask><clipPath id="c26c00f420"><path d="M 0.894531 0.296875 L 21.808594 0.296875 L 21.808594 5.164062 L 0.894531 5.164062 Z M 0.894531 0.296875 " clip-rule="nonzero"/></clipPath><clipPath id="4c8c4b9706"><path d="M 2.515625 0.296875 L 21.796875 0.296875 L 20.175781 5.164062 L 0.894531 5.164062 Z M 2.515625 0.296875 " clip-rule="nonzero"/></clipPath><clipPath id="bf7ec70267"><rect x="0" width="22" y="0" height="6"/></clipPath><mask id="562c8d9909"><g filter="url(#b2dd53ff35)"><rect x="-15" width="180" fill="#000000" y="-3.75" height="45" fill-opacity="0.7"/></g></mask><clipPath id="912392f7fa"><path d="M 0.984375 0.78125 L 21.9375 0.78125 L 21.9375 5.648438 L 0.984375 5.648438 Z M 0.984375 0.78125 " clip-rule="nonzero"/></clipPath><clipPath id="41c891572a"><path d="M 2.609375 0.78125 L 21.929688 0.78125 L 20.304688 5.648438 L 0.984375 5.648438 Z M 2.609375 0.78125 " clip-rule="nonzero"/></clipPath><clipPath id="5b5c6eddab"><rect x="0" width="22" y="0" height="6"/></clipPath><mask id="1b6a6e9eec"><g filter="url(#b2dd53ff35)"><rect x="-15" width="180" fill="#000000" y="-3.75" height="45" fill-opacity="0.8"/></g></mask><clipPath id="87ee08343f"><path d="M 0.285156 0.808594 L 12.21875 0.808594 L 12.21875 16.660156 L 0.285156 16.660156 Z M 0.285156 0.808594 " clip-rule="nonzero"/></clipPath><clipPath id="a224b30d1f"><path d="M 5.566406 0.808594 L 12.21875 0.808594 L 6.9375 16.648438 L 0.285156 16.648438 Z M 5.566406 0.808594 " clip-rule="nonzero"/></clipPath><clipPath id="0a3248ec2d"><rect x="0" width="13" y="0" height="17"/></clipPath><mask id="af4a7a3737"><g filter="url(#b2dd53ff35)"><rect x="-15" width="180" fill="#000000" y="-3.75" height="45" fill-opacity="0.9"/></g></mask><clipPath id="e0d0657016"><path d="M 0.914062 0.808594 L 12.847656 0.808594 L 12.847656 16.660156 L 0.914062 16.660156 Z M 0.914062 0.808594 " clip-rule="nonzero"/></clipPath><clipPath id="f35f86e04d"><path d="M 6.191406 0.808594 L 12.847656 0.808594 L 7.566406 16.648438 L 0.914062 16.648438 Z M 6.191406 0.808594 " clip-rule="nonzero"/></clipPath><clipPath id="6d01f8eb4d"><rect x="0" width="13" y="0" height="17"/></clipPath><clipPath id="6bf935d094"><path d="M 38.359375 9.808594 L 50.292969 9.808594 L 50.292969 25.660156 L 38.359375 25.660156 Z M 38.359375 9.808594 " clip-rule="nonzero"/></clipPath><clipPath id="3130938986"><path d="M 43.640625 9.808594 L 50.292969 9.808594 L 45.011719 25.648438 L 38.359375 25.648438 Z M 43.640625 9.808594 " clip-rule="nonzero"/></clipPath><clipPath id="103fae67f2"><path d="M 45.824219 9.816406 L 57.722656 9.816406 L 57.722656 13.234375 L 45.824219 13.234375 Z M 45.824219 9.816406 " clip-rule="nonzero"/></clipPath><clipPath id="4b1c667b73"><path d="M 46.964844 9.816406 L 57.714844 9.816406 L 56.578125 13.234375 L 45.824219 13.234375 Z M 46.964844 9.816406 " clip-rule="nonzero"/></clipPath><clipPath id="783c248aa5"><path d="M 48.121094 6.949219 L 55.128906 6.949219 L 55.128906 16.257812 L 48.121094 16.257812 Z M 48.121094 6.949219 " clip-rule="nonzero"/></clipPath><clipPath id="b7b8d11d05"><path d="M 51.222656 6.949219 L 55.128906 6.949219 L 52.027344 16.25 L 48.121094 16.25 Z M 51.222656 6.949219 " clip-rule="nonzero"/></clipPath></defs><g mask="url(#e1e34aae4d)"><g transform="matrix(1, 0, 0, 1, 6, 9)"><g clip-path="url(#b9f29e7ade)"><g clip-path="url(#fa8eaa03f5)"><g clip-path="url(#104165bdc0)"><path fill="#373535" d="M 0.777344 0.808594 L 21.707031 0.808594 L 21.707031 5.675781 L 0.777344 5.675781 Z M 0.777344 0.808594 " fill-opacity="1" fill-rule="nonzero"/></g></g></g></g></g><g mask="url(#95956e7f3a)"><g transform="matrix(1, 0, 0, 1, 4, 15)"><g clip-path="url(#bf7ec70267)"><g clip-path="url(#c26c00f420)"><g clip-path="url(#4c8c4b9706)"><path fill="#373535" d="M 0.894531 0.296875 L 21.789062 0.296875 L 21.789062 5.164062 L 0.894531 5.164062 Z M 0.894531 0.296875 " fill-opacity="1" fill-rule="nonzero"/></g></g></g></g></g><g mask="url(#562c8d9909)"><g transform="matrix(1, 0, 0, 1, 2, 20)"><g clip-path="url(#5b5c6eddab)"><g clip-path="url(#912392f7fa)"><g clip-path="url(#41c891572a)"><path fill="#373535" d="M 0.984375 0.78125 L 21.9375 0.78125 L 21.9375 5.648438 L 0.984375 5.648438 Z M 0.984375 0.78125 " fill-opacity="1" fill-rule="nonzero"/></g></g></g></g></g><g mask="url(#1b6a6e9eec)"><g transform="matrix(1, 0, 0, 1, 23, 9)"><g clip-path="url(#0a3248ec2d)"><g clip-path="url(#87ee08343f)"><g clip-path="url(#a224b30d1f)"><path fill="#373535" d="M 0.285156 0.808594 L 12.21875 0.808594 L 12.21875 16.660156 L 0.285156 16.660156 Z M 0.285156 0.808594 " fill-opacity="1" fill-rule="nonzero"/></g></g></g></g></g><g mask="url(#af4a7a3737)"><g transform="matrix(1, 0, 0, 1, 30, 9)"><g clip-path="url(#6d01f8eb4d)"><g clip-path="url(#e0d0657016)"><g clip-path="url(#f35f86e04d)"><path fill="#373535" d="M 0.914062 0.808594 L 12.847656 0.808594 L 12.847656 16.660156 L 0.914062 16.660156 Z M 0.914062 0.808594 " fill-opacity="1" fill-rule="nonzero"/></g></g></g></g></g><g clip-path="url(#6bf935d094)"><g clip-path="url(#3130938986)"><path fill="#373535" d="M 38.359375 9.808594 L 50.292969 9.808594 L 50.292969 25.660156 L 38.359375 25.660156 Z M 38.359375 9.808594 " fill-opacity="1" fill-rule="nonzero"/></g></g><g clip-path="url(#103fae67f2)"><g clip-path="url(#4b1c667b73)"><path fill="#00c2e4" d="M 45.824219 9.816406 L 57.710938 9.816406 L 57.710938 13.234375 L 45.824219 13.234375 Z M 45.824219 9.816406 " fill-opacity="1" fill-rule="nonzero"/></g></g><g clip-path="url(#783c248aa5)"><g clip-path="url(#b7b8d11d05)"><path fill="#00c2e4" d="M 48.121094 6.949219 L 55.128906 6.949219 L 55.128906 16.257812 L 48.121094 16.257812 Z M 48.121094 6.949219 " fill-opacity="1" fill-rule="nonzero"/></g></g><g fill="#373535" fill-opacity="1"><g transform="translate(53.253812, 22.125774)"><g><path d="M 0.078125 0 L 1.828125 -8.21875 L 8.015625 -8.21875 L 7.703125 -6.734375 L 3.1875 -6.734375 L 2.78125 -4.859375 L 5.75 -4.859375 L 5.4375 -3.421875 L 2.46875 -3.421875 L 2.0625 -1.484375 L 6.625 -1.484375 L 6.3125 0 Z M 0.078125 0 "/></g></g></g><g fill="#373535" fill-opacity="1"><g transform="translate(60.696891, 22.125774)"><g><path d="M -0.03125 0 L 1.265625 -6.109375 L 2.84375 -6.109375 L 2.734375 -5.625 C 2.972656 -5.820312 3.222656 -5.96875 3.484375 -6.0625 C 3.753906 -6.15625 4.03125 -6.203125 4.3125 -6.203125 C 4.71875 -6.203125 5.0625 -6.113281 5.34375 -5.9375 C 5.632812 -5.757812 5.859375 -5.519531 6.015625 -5.21875 C 6.316406 -5.539062 6.644531 -5.785156 7 -5.953125 C 7.363281 -6.117188 7.742188 -6.203125 8.140625 -6.203125 C 8.472656 -6.203125 8.773438 -6.132812 9.046875 -6 C 9.316406 -5.875 9.53125 -5.703125 9.6875 -5.484375 C 9.84375 -5.265625 9.945312 -5 10 -4.6875 C 10.0625 -4.375 10.050781 -4.035156 9.96875 -3.671875 L 9.1875 0 L 7.609375 0 L 8.359375 -3.53125 C 8.441406 -3.914062 8.398438 -4.226562 8.234375 -4.46875 C 8.066406 -4.71875 7.8125 -4.84375 7.46875 -4.84375 C 7.25 -4.84375 7.03125 -4.789062 6.8125 -4.6875 C 6.601562 -4.582031 6.398438 -4.421875 6.203125 -4.203125 C 6.203125 -4.117188 6.195312 -4.03125 6.1875 -3.9375 C 6.175781 -3.84375 6.164062 -3.753906 6.15625 -3.671875 L 5.359375 0 L 3.796875 0 L 4.546875 -3.515625 C 4.617188 -3.910156 4.570312 -4.226562 4.40625 -4.46875 C 4.25 -4.71875 3.992188 -4.84375 3.640625 -4.84375 C 3.421875 -4.84375 3.210938 -4.796875 3.015625 -4.703125 C 2.816406 -4.609375 2.628906 -4.46875 2.453125 -4.28125 L 1.546875 0 Z M -0.03125 0 "/></g></g></g><g fill="#373535" fill-opacity="1"><g transform="translate(71.121898, 22.125774)"><g><path d="M -0.546875 2.453125 L 1.265625 -6.109375 L 2.828125 -6.109375 L 2.765625 -5.8125 C 2.984375 -5.9375 3.210938 -6.03125 3.453125 -6.09375 C 3.691406 -6.164062 3.9375 -6.203125 4.1875 -6.203125 C 4.570312 -6.203125 4.929688 -6.128906 5.265625 -5.984375 C 5.597656 -5.835938 5.882812 -5.640625 6.125 -5.390625 C 6.363281 -5.140625 6.550781 -4.835938 6.6875 -4.484375 C 6.832031 -4.140625 6.90625 -3.769531 6.90625 -3.375 C 6.90625 -2.894531 6.816406 -2.441406 6.640625 -2.015625 C 6.460938 -1.597656 6.21875 -1.234375 5.90625 -0.921875 C 5.601562 -0.609375 5.242188 -0.363281 4.828125 -0.1875 C 4.421875 -0.0078125 3.984375 0.078125 3.515625 0.078125 C 3.148438 0.078125 2.8125 0.0195312 2.5 -0.09375 C 2.1875 -0.207031 1.910156 -0.375 1.671875 -0.59375 L 1.015625 2.453125 Z M 3.78125 -4.828125 C 3.539062 -4.828125 3.304688 -4.785156 3.078125 -4.703125 C 2.859375 -4.628906 2.660156 -4.519531 2.484375 -4.375 L 1.96875 -1.96875 C 2.113281 -1.757812 2.320312 -1.59375 2.59375 -1.46875 C 2.863281 -1.351562 3.148438 -1.296875 3.453125 -1.296875 C 3.992188 -1.296875 4.445312 -1.484375 4.8125 -1.859375 C 5.1875 -2.234375 5.375 -2.691406 5.375 -3.234375 C 5.375 -3.679688 5.222656 -4.054688 4.921875 -4.359375 C 4.617188 -4.671875 4.238281 -4.828125 3.78125 -4.828125 Z M 3.78125 -4.828125 "/></g></g></g><g fill="#373535" fill-opacity="1"><g transform="translate(78.388879, 22.125774)"><g><path d="M 0.359375 -2.828125 C 0.359375 -3.285156 0.445312 -3.722656 0.625 -4.140625 C 0.800781 -4.554688 1.039062 -4.914062 1.34375 -5.21875 C 1.65625 -5.53125 2.019531 -5.773438 2.4375 -5.953125 C 2.863281 -6.140625 3.304688 -6.234375 3.765625 -6.234375 C 4.191406 -6.234375 4.585938 -6.15625 4.953125 -6 C 5.328125 -5.851562 5.644531 -5.648438 5.90625 -5.390625 C 6.175781 -5.128906 6.382812 -4.816406 6.53125 -4.453125 C 6.6875 -4.097656 6.765625 -3.710938 6.765625 -3.296875 C 6.765625 -2.835938 6.671875 -2.398438 6.484375 -1.984375 C 6.304688 -1.566406 6.0625 -1.203125 5.75 -0.890625 C 5.445312 -0.585938 5.085938 -0.34375 4.671875 -0.15625 C 4.253906 0.03125 3.816406 0.125 3.359375 0.125 C 2.929688 0.125 2.53125 0.0507812 2.15625 -0.09375 C 1.789062 -0.25 1.472656 -0.457031 1.203125 -0.71875 C 0.941406 -0.976562 0.734375 -1.289062 0.578125 -1.65625 C 0.429688 -2.019531 0.359375 -2.410156 0.359375 -2.828125 Z M 3.421875 -1.28125 C 3.671875 -1.28125 3.90625 -1.328125 4.125 -1.421875 C 4.34375 -1.523438 4.53125 -1.664062 4.6875 -1.84375 C 4.851562 -2.019531 4.984375 -2.226562 5.078125 -2.46875 C 5.171875 -2.707031 5.21875 -2.960938 5.21875 -3.234375 C 5.21875 -3.691406 5.070312 -4.070312 4.78125 -4.375 C 4.5 -4.675781 4.132812 -4.828125 3.6875 -4.828125 C 3.445312 -4.828125 3.210938 -4.773438 2.984375 -4.671875 C 2.765625 -4.578125 2.578125 -4.441406 2.421875 -4.265625 C 2.265625 -4.085938 2.140625 -3.878906 2.046875 -3.640625 C 1.953125 -3.410156 1.90625 -3.160156 1.90625 -2.890625 C 1.90625 -2.421875 2.046875 -2.035156 2.328125 -1.734375 C 2.617188 -1.429688 2.984375 -1.28125 3.421875 -1.28125 Z M 3.421875 -1.28125 "/></g></g></g><g fill="#373535" fill-opacity="1"><g transform="translate(85.51499, 22.125774)"><g><path d="M 2.625 0 L 1.125 0 L 0.765625 -6.109375 L 2.234375 -6.109375 L 2.375 -2.140625 L 4.40625 -6.109375 L 5.71875 -6.109375 L 6.078125 -2.15625 L 7.90625 -6.109375 L 9.40625 -6.109375 L 6.46875 0 L 4.953125 0 L 4.625 -3.921875 Z M 2.625 0 "/></g></g></g><g fill="#373535" fill-opacity="1"><g transform="translate(94.390332, 22.125774)"><g><path d="M 5.75 -0.640625 C 5.375 -0.367188 5 -0.171875 4.625 -0.046875 C 4.257812 0.0664062 3.859375 0.125 3.421875 0.125 C 2.972656 0.125 2.554688 0.0507812 2.171875 -0.09375 C 1.796875 -0.238281 1.46875 -0.4375 1.1875 -0.6875 C 0.914062 -0.945312 0.703125 -1.253906 0.546875 -1.609375 C 0.398438 -1.972656 0.328125 -2.367188 0.328125 -2.796875 C 0.328125 -3.253906 0.414062 -3.691406 0.59375 -4.109375 C 0.769531 -4.523438 1.003906 -4.890625 1.296875 -5.203125 C 1.597656 -5.515625 1.945312 -5.757812 2.34375 -5.9375 C 2.75 -6.113281 3.179688 -6.203125 3.640625 -6.203125 C 4.035156 -6.203125 4.40625 -6.128906 4.75 -5.984375 C 5.09375 -5.835938 5.382812 -5.632812 5.625 -5.375 C 5.875 -5.113281 6.066406 -4.800781 6.203125 -4.4375 C 6.335938 -4.070312 6.40625 -3.679688 6.40625 -3.265625 C 6.40625 -3.179688 6.398438 -3.085938 6.390625 -2.984375 C 6.390625 -2.890625 6.375 -2.734375 6.34375 -2.515625 L 1.890625 -2.515625 C 1.960938 -2.128906 2.144531 -1.8125 2.4375 -1.5625 C 2.738281 -1.320312 3.109375 -1.203125 3.546875 -1.203125 C 3.804688 -1.203125 4.046875 -1.238281 4.265625 -1.3125 C 4.492188 -1.394531 4.695312 -1.507812 4.875 -1.65625 Z M 3.5625 -4.875 C 3.207031 -4.875 2.890625 -4.757812 2.609375 -4.53125 C 2.328125 -4.3125 2.125 -4.019531 2 -3.65625 L 4.921875 -3.65625 C 4.859375 -4.019531 4.703125 -4.3125 4.453125 -4.53125 C 4.203125 -4.757812 3.90625 -4.875 3.5625 -4.875 Z M 3.5625 -4.875 "/></g></g></g><g fill="#373535" fill-opacity="1"><g transform="translate(101.152501, 22.125774)"><g><path d="M -0.03125 0 L 1.265625 -6.109375 L 2.84375 -6.109375 L 2.703125 -5.515625 C 2.929688 -5.753906 3.179688 -5.929688 3.453125 -6.046875 C 3.734375 -6.171875 4.023438 -6.234375 4.328125 -6.234375 C 4.484375 -6.234375 4.628906 -6.21875 4.765625 -6.1875 C 4.898438 -6.164062 5.007812 -6.125 5.09375 -6.0625 L 4.796875 -4.65625 C 4.722656 -4.707031 4.597656 -4.753906 4.421875 -4.796875 C 4.242188 -4.847656 4.082031 -4.875 3.9375 -4.875 C 3.644531 -4.875 3.363281 -4.800781 3.09375 -4.65625 C 2.832031 -4.519531 2.601562 -4.316406 2.40625 -4.046875 L 1.546875 0 Z M -0.03125 0 "/></g></g></g><g fill="#373535" fill-opacity="1"><g transform="translate(105.836711, 22.125774)"><g/></g></g><g fill="#373535" fill-opacity="1"><g transform="translate(108.196423, 22.125774)"><g><path d="M 4.578125 -0.59375 L 2.9375 -6.046875 L 1.65625 0 L 0.078125 0 L 1.828125 -8.21875 L 3.921875 -8.21875 L 5.1875 -3.796875 L 8.328125 -8.21875 L 10.515625 -8.21875 L 8.765625 0 L 7.234375 0 L 8.5 -6.015625 Z M 4.578125 -0.59375 "/></g></g></g><g fill="#373535" fill-opacity="1"><g transform="translate(118.339677, 22.125774)"><g><path d="M 0.359375 -2.828125 C 0.359375 -3.285156 0.445312 -3.722656 0.625 -4.140625 C 0.800781 -4.554688 1.039062 -4.914062 1.34375 -5.21875 C 1.65625 -5.53125 2.019531 -5.773438 2.4375 -5.953125 C 2.863281 -6.140625 3.304688 -6.234375 3.765625 -6.234375 C 4.191406 -6.234375 4.585938 -6.15625 4.953125 -6 C 5.328125 -5.851562 5.644531 -5.648438 5.90625 -5.390625 C 6.175781 -5.128906 6.382812 -4.816406 6.53125 -4.453125 C 6.6875 -4.097656 6.765625 -3.710938 6.765625 -3.296875 C 6.765625 -2.835938 6.671875 -2.398438 6.484375 -1.984375 C 6.304688 -1.566406 6.0625 -1.203125 5.75 -0.890625 C 5.445312 -0.585938 5.085938 -0.34375 4.671875 -0.15625 C 4.253906 0.03125 3.816406 0.125 3.359375 0.125 C 2.929688 0.125 2.53125 0.0507812 2.15625 -0.09375 C 1.789062 -0.25 1.472656 -0.457031 1.203125 -0.71875 C 0.941406 -0.976562 0.734375 -1.289062 0.578125 -1.65625 C 0.429688 -2.019531 0.359375 -2.410156 0.359375 -2.828125 Z M 3.421875 -1.28125 C 3.671875 -1.28125 3.90625 -1.328125 4.125 -1.421875 C 4.34375 -1.523438 4.53125 -1.664062 4.6875 -1.84375 C 4.851562 -2.019531 4.984375 -2.226562 5.078125 -2.46875 C 5.171875 -2.707031 5.21875 -2.960938 5.21875 -3.234375 C 5.21875 -3.691406 5.070312 -4.070312 4.78125 -4.375 C 4.5 -4.675781 4.132812 -4.828125 3.6875 -4.828125 C 3.445312 -4.828125 3.210938 -4.773438 2.984375 -4.671875 C 2.765625 -4.578125 2.578125 -4.441406 2.421875 -4.265625 C 2.265625 -4.085938 2.140625 -3.878906 2.046875 -3.640625 C 1.953125 -3.410156 1.90625 -3.160156 1.90625 -2.890625 C 1.90625 -2.421875 2.046875 -2.035156 2.328125 -1.734375 C 2.617188 -1.429688 2.984375 -1.28125 3.421875 -1.28125 Z M 3.421875 -1.28125 "/></g></g></g><g fill="#373535" fill-opacity="1"><g transform="translate(125.465788, 22.125774)"><g><path d="M 1.921875 0 L 0.640625 -6.109375 L 2.328125 -6.109375 L 3.09375 -2.046875 L 5.578125 -6.109375 L 7.3125 -6.109375 L 3.4375 0 Z M 1.921875 0 "/></g></g></g><g fill="#373535" fill-opacity="1"><g transform="translate(132.134034, 22.125774)"><g><path d="M 5.75 -0.640625 C 5.375 -0.367188 5 -0.171875 4.625 -0.046875 C 4.257812 0.0664062 3.859375 0.125 3.421875 0.125 C 2.972656 0.125 2.554688 0.0507812 2.171875 -0.09375 C 1.796875 -0.238281 1.46875 -0.4375 1.1875 -0.6875 C 0.914062 -0.945312 0.703125 -1.253906 0.546875 -1.609375 C 0.398438 -1.972656 0.328125 -2.367188 0.328125 -2.796875 C 0.328125 -3.253906 0.414062 -3.691406 0.59375 -4.109375 C 0.769531 -4.523438 1.003906 -4.890625 1.296875 -5.203125 C 1.597656 -5.515625 1.945312 -5.757812 2.34375 -5.9375 C 2.75 -6.113281 3.179688 -6.203125 3.640625 -6.203125 C 4.035156 -6.203125 4.40625 -6.128906 4.75 -5.984375 C 5.09375 -5.835938 5.382812 -5.632812 5.625 -5.375 C 5.875 -5.113281 6.066406 -4.800781 6.203125 -4.4375 C 6.335938 -4.070312 6.40625 -3.679688 6.40625 -3.265625 C 6.40625 -3.179688 6.398438 -3.085938 6.390625 -2.984375 C 6.390625 -2.890625 6.375 -2.734375 6.34375 -2.515625 L 1.890625 -2.515625 C 1.960938 -2.128906 2.144531 -1.8125 2.4375 -1.5625 C 2.738281 -1.320312 3.109375 -1.203125 3.546875 -1.203125 C 3.804688 -1.203125 4.046875 -1.238281 4.265625 -1.3125 C 4.492188 -1.394531 4.695312 -1.507812 4.875 -1.65625 Z M 3.5625 -4.875 C 3.207031 -4.875 2.890625 -4.757812 2.609375 -4.53125 C 2.328125 -4.3125 2.125 -4.019531 2 -3.65625 L 4.921875 -3.65625 C 4.859375 -4.019531 4.703125 -4.3125 4.453125 -4.53125 C 4.203125 -4.757812 3.90625 -4.875 3.5625 -4.875 Z M 3.5625 -4.875 "/></g></g></g><g fill="#373535" fill-opacity="1"><g transform="translate(138.896203, 22.125774)"><g><path d="M -0.21875 -0.921875 L 0.6875 -1.9375 C 1.007812 -1.65625 1.335938 -1.441406 1.671875 -1.296875 C 2.003906 -1.160156 2.34375 -1.09375 2.6875 -1.09375 C 3.007812 -1.09375 3.269531 -1.15625 3.46875 -1.28125 C 3.664062 -1.40625 3.765625 -1.566406 3.765625 -1.765625 C 3.765625 -1.890625 3.707031 -2 3.59375 -2.09375 C 3.476562 -2.1875 3.3125 -2.257812 3.09375 -2.3125 L 1.96875 -2.5625 C 1.46875 -2.664062 1.082031 -2.859375 0.8125 -3.140625 C 0.550781 -3.429688 0.421875 -3.789062 0.421875 -4.21875 C 0.421875 -4.820312 0.640625 -5.300781 1.078125 -5.65625 C 1.515625 -6.019531 2.101562 -6.203125 2.84375 -6.203125 C 3.34375 -6.203125 3.816406 -6.117188 4.265625 -5.953125 C 4.722656 -5.796875 5.128906 -5.566406 5.484375 -5.265625 L 4.609375 -4.296875 C 4.296875 -4.523438 3.976562 -4.703125 3.65625 -4.828125 C 3.34375 -4.953125 3.039062 -5.015625 2.75 -5.015625 C 2.46875 -5.015625 2.242188 -4.957031 2.078125 -4.84375 C 1.910156 -4.738281 1.828125 -4.59375 1.828125 -4.40625 C 1.828125 -4.25 1.878906 -4.125 1.984375 -4.03125 C 2.097656 -3.945312 2.289062 -3.878906 2.5625 -3.828125 L 3.671875 -3.578125 C 4.191406 -3.472656 4.585938 -3.273438 4.859375 -2.984375 C 5.128906 -2.703125 5.265625 -2.359375 5.265625 -1.953125 C 5.265625 -1.648438 5.195312 -1.367188 5.0625 -1.109375 C 4.9375 -0.859375 4.753906 -0.640625 4.515625 -0.453125 C 4.285156 -0.273438 4.015625 -0.132812 3.703125 -0.03125 C 3.390625 0.0703125 3.046875 0.125 2.671875 0.125 C 2.109375 0.125 1.566406 0.03125 1.046875 -0.15625 C 0.535156 -0.34375 0.113281 -0.597656 -0.21875 -0.921875 Z M -0.21875 -0.921875 "/></g></g></g></svg>